<svg id="Layer_1" data-name="Layer 1" xmlns="http://www.w3.org/2000/svg" viewBox="0 0 1000 1000"><defs><style>.cls-1{fill:#111;}</style></defs><title>Samourai Wallet-Artboard 2 copy 10</title><path class="cls-1" d="M500,26.05c-261.76,0-473.95,212.19-473.95,474S238.24,974,500,974,974,761.76,974,500,761.76,26.05,500,26.05ZM743.48,763.43,605.79,658l.69,8c34,36.42,64.86,131.11,64.86,131.11H344.61c35.73-105.44,56.54-102,56.54-102l34-76.65V596.94c-17-1-32.6-70.75-32.6-70.75-103.71-9-131.22-63.13-131.22-63.13l17.28-63.3c-39.37-38.67-42.14-43.7-42.14-55.84s8-14.05,8-14.05c2.08-4.16,7.28-3.12,7.28-3.12,2.08-4.16,6.94-3.17,6.94-3.17A13,13,0,0,1,279.41,317c15.26,16.65,31.56-2.43,37.8-13.53s16.65-6.24,16.65-6.24c.7-5.55,6.94-6.94,6.94-6.94,8-11.79,17.34,0,17.34,0H371l288.23-87.4,34,2L678.28,216.8c-151.92,36.07-320.14,95.73-320.14,95.73-15.38,17.81-26.47,61.05-26.47,61.05l76.76,6.7c-4.62-49,1.85-94.34,50.18-94.34s49.25,53.65,49.25,53.65v45.08l20.58,12.95c12.72-2.31,24,19.2,24,19.2s23.58,43.47,18.5,54.8,3.7,24.51,3.7,24.51V597.87c21.73,39.31,178.85,154.8,178.85,154.8Z"/></svg>