<svg id="Layer_1" data-name="Layer 1" xmlns="http://www.w3.org/2000/svg" viewBox="0 0 1000 1000"><defs><style>.cls-1{fill:#c21f20;}</style></defs><title>Samourai Wallet-Artboard 2 copy 4</title><path class="cls-1" d="M0,0V1000H1000V0ZM806.76,831.88,633.28,699l.87,10.05C677,755,715.87,874.27,715.87,874.27H304.24c45-132.84,71.22-128.47,71.22-128.47l42.83-96.57v-27.1C396.87,620.82,377.21,533,377.21,533c-130.65-11.36-165.32-79.53-165.32-79.53l21.77-79.75c-49.59-48.72-53.09-55-53.09-70.35s10.05-17.7,10.05-17.7c2.62-5.24,9.18-3.93,9.18-3.93,2.62-5.24,8.74-4,8.74-4a16.32,16.32,0,0,1,13.55-8.24c19.22,21,39.76-3.06,47.62-17.05s21-7.86,21-7.86c.87-7,8.74-8.74,8.74-8.74,10.05-14.86,21.85,0,21.85,0h16.17L700.57,125.73l42.8,2.58-18.77,14.9C533.21,188.66,321.28,263.82,321.28,263.82c-19.37,22.43-33.36,76.9-33.36,76.9l96.72,8.45c-5.83-61.76,2.33-118.86,63.21-118.86s62,67.59,62,67.59v56.81L535.83,371c16-2.91,30.3,24.18,30.3,24.18s29.71,54.77,23.3,69,4.67,30.88,4.67,30.88V623.3c27.38,49.52,225.33,195,225.33,195Z"/></svg>