<svg id="Layer_1" data-name="Layer 1" xmlns="http://www.w3.org/2000/svg" viewBox="0 0 1000 1000"><defs><style>.cls-1{fill:#c21f20;}.cls-2{fill:#111;}</style></defs><title>Samourai Wallet-Artboard 2 copy 8</title><circle class="cls-1" cx="500" cy="500" r="473.95"/><path class="cls-2" d="M753.54,752.68S596.42,637.18,574.69,597.87V496.13S565.9,483,571,471.62s-18.5-54.8-18.5-54.8-11.33-21.51-24-19.2l-20.58-12.95V339.59s-.92-53.65-49.25-53.65-54.8,45.32-50.18,94.34l-76.76-6.7s11.09-43.24,26.47-61.05c0,0,168.22-59.66,320.14-95.73L693.17,205l-34-2L371,290.33H358.14s-9.36-11.79-17.34,0c0,0-6.24,1.39-6.94,6.94,0,0-10.4-4.86-16.65,6.24s-22.54,30.18-37.8,13.53a13,13,0,0,0-10.75,6.54s-4.86-1-6.94,3.17c0,0-5.2-1-7.28,3.12,0,0-8,1.91-8,14.05s2.77,17.17,42.14,55.84l-17.28,63.3s27.51,54.11,131.22,63.13c0,0,15.61,69.71,32.6,70.75v21.51l-34,76.65s-20.81-3.47-56.54,102H671.34S640.47,702.38,606.48,666l-.69-8L743.48,763.43Z"/></svg>