<svg id="Layer_1" data-name="Layer 1" xmlns="http://www.w3.org/2000/svg" viewBox="0 0 1000 1000"><defs><style>.cls-1{fill:#111;}.cls-2{fill:#fff;}</style></defs><title>Samourai Wallet-Artboard 2 copy 3</title><rect class="cls-1" width="1000" height="1000"/><path class="cls-2" d="M819.43,818.34S621.48,672.82,594.1,623.3V495.12s-11.08-16.6-4.67-30.88-23.3-69-23.3-69-14.28-27.09-30.3-24.18L509.9,354.71V297.9s-1.16-67.59-62-67.59-69,57.1-63.21,118.86l-96.72-8.45s14-54.47,33.36-76.9c0,0,211.93-75.16,403.32-120.61l18.77-14.9-42.8-2.58L337.45,235.85H321.28s-11.8-14.86-21.85,0c0,0-7.87,1.75-8.74,8.74,0,0-13.11-6.12-21,7.86s-28.4,38-47.62,17.05a16.32,16.32,0,0,0-13.55,8.24s-6.12-1.25-8.74,4c0,0-6.56-1.31-9.18,3.93,0,0-10.05,2.41-10.05,17.7s3.5,21.63,53.09,70.35l-21.77,79.75S246.56,521.63,377.21,533c0,0,19.66,87.83,41.08,89.14v27.1L375.46,745.8s-26.22-4.37-71.22,128.47H715.87S677,755,634.15,709.09L633.28,699,806.76,831.88Z"/></svg>